<?xml version="1.0" encoding="UTF-8"?>
<svg id="Capa_2" data-name="Capa 2" xmlns="http://www.w3.org/2000/svg" viewBox="0 0 177.77 179.62">
  <defs>
    <style>
      .cls-1 {
        fill: #ff7838;
      }
    </style>
  </defs>
  <g id="Capa_1-2" data-name="Capa 1">
    <g>
      <path class="cls-1" d="M158.08,100.9s0-.02,0-.03c0-22.46-9.1-39.76-22.9-51.43-1.38-1.17-2.81-2.28-4.28-3.34-.81-.58-1.64-1.16-2.48-1.7.02-.02.03-.03.05-.05-.59-.4-1.18-.78-1.78-1.17l.1-.12c-10.88-6.94-23.77-11.28-36.85-11.29h-.16c-1.99-.14-3.99-.21-6-.21h-35.35s0,0,0,0h-19.9s0,0,0,0c-4.29,0-7.77,3.51-7.78,7.83v54.88s.01,34.45.01,34.45c-2.86,2.83-5.63,5.76-8.22,8.85-3.59,4.3-6.9,8.89-9.41,13.92-2.64,5.31-4.3,11.29-2.16,17.08.29.79.65,1.56,1.06,2.3,1.38,2.47,2.9,4.11,5.25,5.65,1.43.93,3.05,1.56,4.68,2.02,1.64.47,3.32.77,4.99,1.08-1.33-.24-2.11-.59-3.12-1.46-1.17-1-2.18-2.19-3.15-3.38-.93-1.13-1.8-2.32-2.5-3.61-.46-.84-.85-1.72-1.14-2.64-1.08-3.39-.73-7.31.16-10.7.91-3.49,2.51-6.77,4.34-9.87,3.97-6.73,9.14-12.51,14.77-17.82,2.38-2.25,4.84-4.41,7.33-6.52.37-.32.74-.63,1.12-.95,4.2-3.53,8.56-6.87,13.02-10.06,1.87-1.33,3.75-2.64,5.66-3.92-.02,0-.04,0-.06-.01.94-.62,1.89-1.24,2.83-1.88,5.04-3.4,10.14-7.12,15.24-11.1.61-.48,1.23-.94,1.84-1.43l-.17-.1c.23-.18.45-.35.68-.53l-4.1-2.39,1.5-1.66,5.87,1.63,3.65,1.02,1.37.38.42-.62h.04s8.96-12.91,8.96-12.91h0s.33-.49.33-.49c.07.06.14.12,0-.01-.74-.72-1.43-1.48-2.29-2l-12.05-7.35-6-3.78,1.21-1.33c.64.11,1.25.22,1.88.38l9.46,2.35.29-.3.16.04,2.49-2.54s.08-.07.12-.1c.26-.07.54-.05.8.12.85.56,1.55,1.26,2.19,2.08.25.32.19.83-.02,1.13l-.64.89,10.63,2.67c.1-.11.21-.22.31-.33h.04c2.94-2.99,5.9-6.57,9.41-8.89.45-.29.92-.56,1.39-.8.21-.11.42-.22.64-.31.03-.01.05-.02.08-.03l.06-.08s.1-.05.15-.07c1.07-.44,2.1-.79,3.22-.87,1.16-.08,2.05.67,2.04,1.85,0,.55-.09,1.12-.23,1.7-.08.1-.17.21-.25.31-.37,1.46-1.12,2.97-1.99,4.37-.18.29-.36.56-.55.84-2.15,2.49-4.28,4.99-6.39,7.51l-.23.26h0s.02.08.02.08c-.03.03-.05.06-.08.09,0,0-.24.27-.23.28l1.12,4.51,1.69,6.81c.22-.18.39-.33.56-.49.48-.47,1.14-.62,1.67-.12,1.08,1,2.16,1.78,2.09,2.64-.05.06-.1.13-.16.2l-2.3,2.43.09.28-.36.38,3.38,10.95-1.21,1.26-12.5-17.72c-.5-.71-1.15-1.24-1.78-1.8-.17-.15-.1-.07-.02.02l-13.05,9.86.11.31-.52.4,1.54,4.45.18.52.51,1.46,1.33,3.97-1.62,1.71-2.65-4.01c-6.77,9.48-13.06,19.26-18.64,29.43-1.29,2.74-2.54,5.43-3.65,8.15-2.11,4.99-3.79,10.03-4.36,15.61-.63,6.13,2.59,13.51,9.58,13.61l6.69.1,11.4.17c20.7.31,39.92-8.05,53.59-23.37.75-.83,1.46-1.68,2.16-2.54,8.95-10.46,14.88-24.07,15.61-40.75,0-.11,0-.23.01-.34.02-.42.03-.84.04-1.26.02-.64.03-1.28.03-1.95,0-.12,0-.24,0-.36,0-.13,0-.26,0-.39Z"/>
      <path class="cls-1" d="M132.36,22.87c16.85,0,22.7-5.9,22.7-22.87,0,16.98,5.85,22.87,22.7,22.87-16.85,0-22.7,5.9-22.7,22.87,0-16.98-5.85-22.87-22.7-22.87Z"/>
    </g>
  </g>
</svg>